<?xml version="1.0" encoding="UTF-8" standalone="no"?>
<!DOCTYPE svg PUBLIC "-//W3C//DTD SVG 1.1//EN"
 "http://www.w3.org/Graphics/SVG/1.1/DTD/svg11.dtd">
<!-- Generated by graphviz version 2.28.0 (20120716.1447)
 -->
<!-- Title: controllers_diagram Pages: 1 -->
<svg width="993pt" height="854pt"
 viewBox="0.00 0.00 992.75 853.81" xmlns="http://www.w3.org/2000/svg" xmlns:xlink="http://www.w3.org/1999/xlink">
<g id="graph1" class="graph" transform="scale(1 1) rotate(0) translate(4 849.807)">
<title>controllers_diagram</title>
<polygon fill="white" stroke="white" points="-4,5 -4,-849.807 989.75,-849.807 989.75,5 -4,5"/>
<!-- _diagram_info -->
<g id="node1" class="node"><title>_diagram_info</title>
<text text-anchor="start" x="735.75" y="-231.6" font-family="Times,serif" font-size="13.00">Controllers diagram</text>
<text text-anchor="start" x="735.75" y="-217.6" font-family="Times,serif" font-size="13.00">Date: Jan 08 2013 &#45; 05:52</text>
<text text-anchor="start" x="735.75" y="-203.6" font-family="Times,serif" font-size="13.00">Migration version: 20121224190633</text>
<text text-anchor="start" x="735.75" y="-189.6" font-family="Times,serif" font-size="13.00">Generated by RailRoady 1.1.0</text>
<text text-anchor="start" x="735.75" y="-175.6" font-family="Times,serif" font-size="13.00">http://railroady.prestonlee.com</text>
</g>
<!-- SiteRatesController -->
<g id="node2" class="node"><title>SiteRatesController</title>
<polyline fill="none" stroke="black" points="11.75,-187.637 242.75,-187.637 "/>
<path fill="none" stroke="black" d="M242.75,-187.637C248.75,-187.637 254.75,-193.637 254.75,-199.637"/>
<polyline fill="none" stroke="black" points="254.75,-199.637 254.75,-343.637 "/>
<path fill="none" stroke="black" d="M254.75,-343.637C254.75,-349.637 248.75,-355.637 242.75,-355.637"/>
<polyline fill="none" stroke="black" points="242.75,-355.637 11.75,-355.637 "/>
<path fill="none" stroke="black" d="M11.75,-355.637C5.75,-355.637 -0.25,-349.637 -0.25,-343.637"/>
<polyline fill="none" stroke="black" points="-0.25,-343.637 -0.25,-199.637 "/>
<path fill="none" stroke="black" d="M-0.25,-199.637C-0.25,-193.637 5.75,-187.637 11.75,-187.637"/>
<text text-anchor="middle" x="127.25" y="-340.437" font-family="Times,serif" font-size="14.00">SiteRatesController</text>
<polyline fill="none" stroke="black" points="-0.25,-332.637 254.75,-332.637 "/>
<text text-anchor="start" x="7.75" y="-317.437" font-family="Times,serif" font-size="14.00">_callback_before_385</text>
<text text-anchor="start" x="7.75" y="-302.437" font-family="Times,serif" font-size="14.00">_one_time_conditions_valid_382?</text>
<text text-anchor="start" x="7.75" y="-287.437" font-family="Times,serif" font-size="14.00">_one_time_conditions_valid_386?</text>
<text text-anchor="start" x="7.75" y="-272.437" font-family="Times,serif" font-size="14.00">index</text>
<text text-anchor="start" x="7.75" y="-257.437" font-family="Times,serif" font-size="14.00">recount_rates</text>
<text text-anchor="start" x="7.75" y="-242.437" font-family="Times,serif" font-size="14.00">user_rates</text>
<polyline fill="none" stroke="black" points="-0.25,-234.637 254.75,-234.637 "/>
<polyline fill="none" stroke="black" points="-0.25,-210.637 254.75,-210.637 "/>
<text text-anchor="start" x="7.75" y="-195.437" font-family="Times,serif" font-size="14.00">_layout</text>
</g>
<!-- UserWatchesController -->
<g id="node3" class="node"><title>UserWatchesController</title>
<polyline fill="none" stroke="black" points="643.36,-342.175 874.36,-342.175 "/>
<path fill="none" stroke="black" d="M874.36,-342.175C880.36,-342.175 886.36,-348.175 886.36,-354.175"/>
<polyline fill="none" stroke="black" points="886.36,-354.175 886.36,-483.175 "/>
<path fill="none" stroke="black" d="M886.36,-483.175C886.36,-489.175 880.36,-495.175 874.36,-495.175"/>
<polyline fill="none" stroke="black" points="874.36,-495.175 643.36,-495.175 "/>
<path fill="none" stroke="black" d="M643.36,-495.175C637.36,-495.175 631.36,-489.175 631.36,-483.175"/>
<polyline fill="none" stroke="black" points="631.36,-483.175 631.36,-354.175 "/>
<path fill="none" stroke="black" d="M631.36,-354.175C631.36,-348.175 637.36,-342.175 643.36,-342.175"/>
<text text-anchor="middle" x="758.86" y="-479.975" font-family="Times,serif" font-size="14.00">UserWatchesController</text>
<polyline fill="none" stroke="black" points="631.36,-472.175 886.36,-472.175 "/>
<text text-anchor="start" x="639.36" y="-456.975" font-family="Times,serif" font-size="14.00">_one_time_conditions_valid_388?</text>
<text text-anchor="start" x="639.36" y="-441.975" font-family="Times,serif" font-size="14.00">create_user_watch</text>
<text text-anchor="start" x="639.36" y="-426.975" font-family="Times,serif" font-size="14.00">user_watch_destroy</text>
<text text-anchor="start" x="639.36" y="-411.975" font-family="Times,serif" font-size="14.00">user_watches_list</text>
<polyline fill="none" stroke="black" points="631.36,-404.175 886.36,-404.175 "/>
<polyline fill="none" stroke="black" points="631.36,-380.175 886.36,-380.175 "/>
<text text-anchor="start" x="639.36" y="-364.975" font-family="Times,serif" font-size="14.00">_layout</text>
<text text-anchor="start" x="639.36" y="-349.975" font-family="Times,serif" font-size="14.00">check_signed_in</text>
</g>
<!-- RequestsController -->
<g id="node4" class="node"><title>RequestsController</title>
<polyline fill="none" stroke="black" points="379.835,-0.5 610.835,-0.5 "/>
<path fill="none" stroke="black" d="M610.835,-0.5C616.835,-0.5 622.835,-6.5 622.835,-12.5"/>
<polyline fill="none" stroke="black" points="622.835,-12.5 622.835,-216.5 "/>
<path fill="none" stroke="black" d="M622.835,-216.5C622.835,-222.5 616.835,-228.5 610.835,-228.5"/>
<polyline fill="none" stroke="black" points="610.835,-228.5 379.835,-228.5 "/>
<path fill="none" stroke="black" d="M379.835,-228.5C373.835,-228.5 367.835,-222.5 367.835,-216.5"/>
<polyline fill="none" stroke="black" points="367.835,-216.5 367.835,-12.5 "/>
<path fill="none" stroke="black" d="M367.835,-12.5C367.835,-6.5 373.835,-0.5 379.835,-0.5"/>
<text text-anchor="middle" x="495.335" y="-213.3" font-family="Times,serif" font-size="14.00">RequestsController</text>
<polyline fill="none" stroke="black" points="367.835,-205.5 622.835,-205.5 "/>
<text text-anchor="start" x="375.835" y="-190.3" font-family="Times,serif" font-size="14.00">_one_time_conditions_valid_390?</text>
<text text-anchor="start" x="375.835" y="-175.3" font-family="Times,serif" font-size="14.00">contacts</text>
<text text-anchor="start" x="375.835" y="-160.3" font-family="Times,serif" font-size="14.00">email_to_admin</text>
<text text-anchor="start" x="375.835" y="-145.3" font-family="Times,serif" font-size="14.00">load_mailing</text>
<text text-anchor="start" x="375.835" y="-130.3" font-family="Times,serif" font-size="14.00">mailing_list_manage</text>
<text text-anchor="start" x="375.835" y="-115.3" font-family="Times,serif" font-size="14.00">send_unlock</text>
<text text-anchor="start" x="375.835" y="-100.3" font-family="Times,serif" font-size="14.00">spam_complain</text>
<text text-anchor="start" x="375.835" y="-85.3" font-family="Times,serif" font-size="14.00">terms</text>
<text text-anchor="start" x="375.835" y="-70.3" font-family="Times,serif" font-size="14.00">user_locked</text>
<text text-anchor="start" x="375.835" y="-55.3" font-family="Times,serif" font-size="14.00">user_subscription</text>
<polyline fill="none" stroke="black" points="367.835,-47.5 622.835,-47.5 "/>
<polyline fill="none" stroke="black" points="367.835,-23.5 622.835,-23.5 "/>
<text text-anchor="start" x="375.835" y="-8.3" font-family="Times,serif" font-size="14.00">_layout</text>
</g>
<!-- PaymentsController -->
<g id="node5" class="node"><title>PaymentsController</title>
<polyline fill="none" stroke="black" points="433.678,-677.307 664.678,-677.307 "/>
<path fill="none" stroke="black" d="M664.678,-677.307C670.678,-677.307 676.678,-683.307 676.678,-689.307"/>
<polyline fill="none" stroke="black" points="676.678,-689.307 676.678,-833.307 "/>
<path fill="none" stroke="black" d="M676.678,-833.307C676.678,-839.307 670.678,-845.307 664.678,-845.307"/>
<polyline fill="none" stroke="black" points="664.678,-845.307 433.678,-845.307 "/>
<path fill="none" stroke="black" d="M433.678,-845.307C427.678,-845.307 421.678,-839.307 421.678,-833.307"/>
<polyline fill="none" stroke="black" points="421.678,-833.307 421.678,-689.307 "/>
<path fill="none" stroke="black" d="M421.678,-689.307C421.678,-683.307 427.678,-677.307 433.678,-677.307"/>
<text text-anchor="middle" x="549.178" y="-830.107" font-family="Times,serif" font-size="14.00">PaymentsController</text>
<polyline fill="none" stroke="black" points="421.678,-822.307 676.678,-822.307 "/>
<text text-anchor="start" x="429.678" y="-807.107" font-family="Times,serif" font-size="14.00">_callback_before_393</text>
<text text-anchor="start" x="429.678" y="-792.107" font-family="Times,serif" font-size="14.00">_one_time_conditions_valid_394?</text>
<text text-anchor="start" x="429.678" y="-777.107" font-family="Times,serif" font-size="14.00">checkout</text>
<text text-anchor="start" x="429.678" y="-762.107" font-family="Times,serif" font-size="14.00">complete</text>
<text text-anchor="start" x="429.678" y="-747.107" font-family="Times,serif" font-size="14.00">create_user_promo</text>
<text text-anchor="start" x="429.678" y="-732.107" font-family="Times,serif" font-size="14.00">new</text>
<polyline fill="none" stroke="black" points="421.678,-724.307 676.678,-724.307 "/>
<polyline fill="none" stroke="black" points="421.678,-700.307 676.678,-700.307 "/>
<text text-anchor="start" x="429.678" y="-685.107" font-family="Times,serif" font-size="14.00">_layout</text>
</g>
<!-- ApplicationController -->
<g id="node6" class="node"><title>ApplicationController</title>
<polyline fill="none" stroke="black" points="308.704,-287.365 530.704,-287.365 "/>
<path fill="none" stroke="black" d="M530.704,-287.365C536.704,-287.365 542.704,-293.365 542.704,-299.365"/>
<polyline fill="none" stroke="black" points="542.704,-299.365 542.704,-593.365 "/>
<path fill="none" stroke="black" d="M542.704,-593.365C542.704,-599.365 536.704,-605.365 530.704,-605.365"/>
<polyline fill="none" stroke="black" points="530.704,-605.365 308.704,-605.365 "/>
<path fill="none" stroke="black" d="M308.704,-605.365C302.704,-605.365 296.704,-599.365 296.704,-593.365"/>
<polyline fill="none" stroke="black" points="296.704,-593.365 296.704,-299.365 "/>
<path fill="none" stroke="black" d="M296.704,-299.365C296.704,-293.365 302.704,-287.365 308.704,-287.365"/>
<text text-anchor="middle" x="419.704" y="-590.165" font-family="Times,serif" font-size="14.00">ApplicationController</text>
<polyline fill="none" stroke="black" points="296.704,-582.365 542.704,-582.365 "/>
<text text-anchor="start" x="304.704" y="-567.165" font-family="Times,serif" font-size="14.00">_one_time_conditions_valid_16?</text>
<text text-anchor="start" x="304.704" y="-552.165" font-family="Times,serif" font-size="14.00">_one_time_conditions_valid_18?</text>
<text text-anchor="start" x="304.704" y="-537.165" font-family="Times,serif" font-size="14.00">_one_time_conditions_valid_20?</text>
<text text-anchor="start" x="304.704" y="-522.165" font-family="Times,serif" font-size="14.00">_one_time_conditions_valid_22?</text>
<text text-anchor="start" x="304.704" y="-507.165" font-family="Times,serif" font-size="14.00">_one_time_conditions_valid_24?</text>
<text text-anchor="start" x="304.704" y="-492.165" font-family="Times,serif" font-size="14.00">_one_time_conditions_valid_26?</text>
<text text-anchor="start" x="304.704" y="-477.165" font-family="Times,serif" font-size="14.00">_one_time_conditions_valid_28?</text>
<polyline fill="none" stroke="black" points="296.704,-469.365 542.704,-469.365 "/>
<polyline fill="none" stroke="black" points="296.704,-445.365 542.704,-445.365 "/>
<text text-anchor="start" x="304.704" y="-430.165" font-family="Times,serif" font-size="14.00">_layout</text>
<text text-anchor="start" x="304.704" y="-415.165" font-family="Times,serif" font-size="14.00">check_user_lock</text>
<text text-anchor="start" x="304.704" y="-400.165" font-family="Times,serif" font-size="14.00">current_ability</text>
<text text-anchor="start" x="304.704" y="-385.165" font-family="Times,serif" font-size="14.00">extract_locale_from_tld</text>
<text text-anchor="start" x="304.704" y="-370.165" font-family="Times,serif" font-size="14.00">get_news</text>
<text text-anchor="start" x="304.704" y="-355.165" font-family="Times,serif" font-size="14.00">get_plans</text>
<text text-anchor="start" x="304.704" y="-340.165" font-family="Times,serif" font-size="14.00">get_promo</text>
<text text-anchor="start" x="304.704" y="-325.165" font-family="Times,serif" font-size="14.00">get_tweets</text>
<text text-anchor="start" x="304.704" y="-310.165" font-family="Times,serif" font-size="14.00">render_404</text>
<text text-anchor="start" x="304.704" y="-295.165" font-family="Times,serif" font-size="14.00">set_locale</text>
</g>
<!-- ApplicationController&#45;&gt;SiteRatesController -->
<g id="edge2" class="edge"><title>ApplicationController&#45;&gt;SiteRatesController</title>
<path fill="none" stroke="black" d="M296.525,-372.771C282.788,-364.564 268.772,-356.19 254.979,-347.95"/>
</g>
<!-- ApplicationController&#45;&gt;UserWatchesController -->
<g id="edge4" class="edge"><title>ApplicationController&#45;&gt;UserWatchesController</title>
<path fill="none" stroke="black" d="M543.106,-436.29C571.8,-433.948 602.404,-431.449 631.275,-429.092"/>
</g>
<!-- ApplicationController&#45;&gt;RequestsController -->
<g id="edge6" class="edge"><title>ApplicationController&#45;&gt;RequestsController</title>
<path fill="none" stroke="black" d="M455.969,-287.237C460.48,-267.441 465.021,-247.516 469.334,-228.591"/>
</g>
<!-- ApplicationController&#45;&gt;PaymentsController -->
<g id="edge8" class="edge"><title>ApplicationController&#45;&gt;PaymentsController</title>
<path fill="none" stroke="black" d="M485.199,-605.681C495.36,-630.398 505.496,-655.053 514.606,-677.212"/>
</g>
<!-- UserLinksController -->
<g id="node8" class="node"><title>UserLinksController</title>
<polyline fill="none" stroke="black" points="45.7039,-561.88 276.704,-561.88 "/>
<path fill="none" stroke="black" d="M276.704,-561.88C282.704,-561.88 288.704,-567.88 288.704,-573.88"/>
<polyline fill="none" stroke="black" points="288.704,-573.88 288.704,-762.88 "/>
<path fill="none" stroke="black" d="M288.704,-762.88C288.704,-768.88 282.704,-774.88 276.704,-774.88"/>
<polyline fill="none" stroke="black" points="276.704,-774.88 45.7039,-774.88 "/>
<path fill="none" stroke="black" d="M45.7039,-774.88C39.7039,-774.88 33.7039,-768.88 33.7039,-762.88"/>
<polyline fill="none" stroke="black" points="33.7039,-762.88 33.7039,-573.88 "/>
<path fill="none" stroke="black" d="M33.7039,-573.88C33.7039,-567.88 39.7039,-561.88 45.7039,-561.88"/>
<text text-anchor="middle" x="161.204" y="-759.68" font-family="Times,serif" font-size="14.00">UserLinksController</text>
<polyline fill="none" stroke="black" points="33.7039,-751.88 288.704,-751.88 "/>
<text text-anchor="start" x="41.7039" y="-736.68" font-family="Times,serif" font-size="14.00">_callback_before_407</text>
<text text-anchor="start" x="41.7039" y="-721.68" font-family="Times,serif" font-size="14.00">_one_time_conditions_valid_404?</text>
<text text-anchor="start" x="41.7039" y="-706.68" font-family="Times,serif" font-size="14.00">_one_time_conditions_valid_408?</text>
<text text-anchor="start" x="41.7039" y="-691.68" font-family="Times,serif" font-size="14.00">create</text>
<text text-anchor="start" x="41.7039" y="-676.68" font-family="Times,serif" font-size="14.00">destroy</text>
<text text-anchor="start" x="41.7039" y="-661.68" font-family="Times,serif" font-size="14.00">index</text>
<text text-anchor="start" x="41.7039" y="-646.68" font-family="Times,serif" font-size="14.00">new</text>
<text text-anchor="start" x="41.7039" y="-631.68" font-family="Times,serif" font-size="14.00">resend</text>
<text text-anchor="start" x="41.7039" y="-616.68" font-family="Times,serif" font-size="14.00">show</text>
<polyline fill="none" stroke="black" points="33.7039,-608.88 288.704,-608.88 "/>
<polyline fill="none" stroke="black" points="33.7039,-584.88 288.704,-584.88 "/>
<text text-anchor="start" x="41.7039" y="-569.68" font-family="Times,serif" font-size="14.00">_layout</text>
</g>
<!-- ApplicationController&#45;&gt;UserLinksController -->
<g id="edge10" class="edge"><title>ApplicationController&#45;&gt;UserLinksController</title>
<path fill="none" stroke="black" d="M296.511,-552.171C292.869,-555.298 289.222,-558.431 285.58,-561.559"/>
</g>
<!-- UsersController -->
<g id="node7" class="node"><title>UsersController</title>
<polyline fill="none" stroke="black" points="795.75,-616.5 902.75,-616.5 "/>
<path fill="none" stroke="black" d="M902.75,-616.5C908.75,-616.5 914.75,-622.5 914.75,-628.5"/>
<polyline fill="none" stroke="black" points="914.75,-628.5 914.75,-698.5 "/>
<path fill="none" stroke="black" d="M914.75,-698.5C914.75,-704.5 908.75,-710.5 902.75,-710.5"/>
<polyline fill="none" stroke="black" points="902.75,-710.5 795.75,-710.5 "/>
<path fill="none" stroke="black" d="M795.75,-710.5C789.75,-710.5 783.75,-704.5 783.75,-698.5"/>
<polyline fill="none" stroke="black" points="783.75,-698.5 783.75,-628.5 "/>
<path fill="none" stroke="black" d="M783.75,-628.5C783.75,-622.5 789.75,-616.5 795.75,-616.5"/>
<text text-anchor="middle" x="849.25" y="-695.3" font-family="Times,serif" font-size="14.00">UsersController</text>
<polyline fill="none" stroke="black" points="783.75,-687.5 914.75,-687.5 "/>
<polyline fill="none" stroke="black" points="783.75,-663.5 914.75,-663.5 "/>
<polyline fill="none" stroke="black" points="783.75,-639.5 914.75,-639.5 "/>
<text text-anchor="start" x="791.75" y="-624.3" font-family="Times,serif" font-size="14.00">_layout</text>
</g>
</g>
</svg>
