<?xml version="1.0" encoding="UTF-8" standalone="no"?>
<!DOCTYPE svg PUBLIC "-//W3C//DTD SVG 1.1//EN"
 "http://www.w3.org/Graphics/SVG/1.1/DTD/svg11.dtd">
<!-- Generated by graphviz version 2.28.0 (20120716.1447)
 -->
<!-- Title: models_diagram Pages: 1 -->
<svg width="2153pt" height="950pt"
 viewBox="0.00 0.00 2153.00 950.00" xmlns="http://www.w3.org/2000/svg" xmlns:xlink="http://www.w3.org/1999/xlink">
<g id="graph1" class="graph" transform="scale(1 1) rotate(0) translate(4 946)">
<title>models_diagram</title>
<polygon fill="white" stroke="white" points="-4,5 -4,-946 2150,-946 2150,5 -4,5"/>
<!-- _diagram_info -->
<g id="node1" class="node"><title>_diagram_info</title>
<text text-anchor="start" x="125.5" y="-845.6" font-family="Times,serif" font-size="13.00">Models diagram</text>
<text text-anchor="start" x="125.5" y="-831.6" font-family="Times,serif" font-size="13.00">Date: Jan 08 2013 &#45; 05:52</text>
<text text-anchor="start" x="125.5" y="-817.6" font-family="Times,serif" font-size="13.00">Migration version: 20121224190633</text>
<text text-anchor="start" x="125.5" y="-803.6" font-family="Times,serif" font-size="13.00">Generated by RailRoady 1.1.0</text>
<text text-anchor="start" x="125.5" y="-789.6" font-family="Times,serif" font-size="13.00">http://railroady.prestonlee.com</text>
</g>
<!-- Promo -->
<g id="node2" class="node"><title>Promo</title>
<polyline fill="none" stroke="black" points="405,-753 551,-753 "/>
<path fill="none" stroke="black" d="M551,-753C557,-753 563,-759 563,-765"/>
<polyline fill="none" stroke="black" points="563,-765 563,-877 "/>
<path fill="none" stroke="black" d="M563,-877C563,-883 557,-889 551,-889"/>
<polyline fill="none" stroke="black" points="551,-889 405,-889 "/>
<path fill="none" stroke="black" d="M405,-889C399,-889 393,-883 393,-877"/>
<polyline fill="none" stroke="black" points="393,-877 393,-765 "/>
<path fill="none" stroke="black" d="M393,-765C393,-759 399,-753 405,-753"/>
<text text-anchor="middle" x="478" y="-873.8" font-family="Times,serif" font-size="14.00">Promo</text>
<polyline fill="none" stroke="black" points="393,-866 563,-866 "/>
<text text-anchor="start" x="401" y="-850.8" font-family="Times,serif" font-size="14.00">id :integer</text>
<text text-anchor="start" x="401" y="-835.8" font-family="Times,serif" font-size="14.00">name :string</text>
<text text-anchor="start" x="401" y="-820.8" font-family="Times,serif" font-size="14.00">period :integer</text>
<text text-anchor="start" x="401" y="-805.8" font-family="Times,serif" font-size="14.00">active_upto :date</text>
<text text-anchor="start" x="401" y="-790.8" font-family="Times,serif" font-size="14.00">registration :boolean</text>
<text text-anchor="start" x="401" y="-775.8" font-family="Times,serif" font-size="14.00">created_at :datetime</text>
<text text-anchor="start" x="401" y="-760.8" font-family="Times,serif" font-size="14.00">updated_at :datetime</text>
</g>
<!-- UserPlan -->
<g id="node3" class="node"><title>UserPlan</title>
<polyline fill="none" stroke="black" points="12,-512 158,-512 "/>
<path fill="none" stroke="black" d="M158,-512C164,-512 170,-518 170,-524"/>
<polyline fill="none" stroke="black" points="170,-524 170,-636 "/>
<path fill="none" stroke="black" d="M170,-636C170,-642 164,-648 158,-648"/>
<polyline fill="none" stroke="black" points="158,-648 12,-648 "/>
<path fill="none" stroke="black" d="M12,-648C6,-648 0,-642 0,-636"/>
<polyline fill="none" stroke="black" points="0,-636 0,-524 "/>
<path fill="none" stroke="black" d="M0,-524C0,-518 6,-512 12,-512"/>
<text text-anchor="middle" x="85" y="-632.8" font-family="Times,serif" font-size="14.00">UserPlan</text>
<polyline fill="none" stroke="black" points="0,-625 170,-625 "/>
<text text-anchor="start" x="8" y="-609.8" font-family="Times,serif" font-size="14.00">id :integer</text>
<text text-anchor="start" x="8" y="-594.8" font-family="Times,serif" font-size="14.00">user_id :integer</text>
<text text-anchor="start" x="8" y="-579.8" font-family="Times,serif" font-size="14.00">plan_id :integer</text>
<text text-anchor="start" x="8" y="-564.8" font-family="Times,serif" font-size="14.00">paid_upto :date</text>
<text text-anchor="start" x="8" y="-549.8" font-family="Times,serif" font-size="14.00">created_at :datetime</text>
<text text-anchor="start" x="8" y="-534.8" font-family="Times,serif" font-size="14.00">updated_at :datetime</text>
<text text-anchor="start" x="8" y="-519.8" font-family="Times,serif" font-size="14.00">freeze_days :integer</text>
</g>
<!-- Domain -->
<g id="node4" class="node"><title>Domain</title>
<polyline fill="none" stroke="black" points="355,-527 501,-527 "/>
<path fill="none" stroke="black" d="M501,-527C507,-527 513,-533 513,-539"/>
<polyline fill="none" stroke="black" points="513,-539 513,-621 "/>
<path fill="none" stroke="black" d="M513,-621C513,-627 507,-633 501,-633"/>
<polyline fill="none" stroke="black" points="501,-633 355,-633 "/>
<path fill="none" stroke="black" d="M355,-633C349,-633 343,-627 343,-621"/>
<polyline fill="none" stroke="black" points="343,-621 343,-539 "/>
<path fill="none" stroke="black" d="M343,-539C343,-533 349,-527 355,-527"/>
<text text-anchor="middle" x="428" y="-617.8" font-family="Times,serif" font-size="14.00">Domain</text>
<polyline fill="none" stroke="black" points="343,-610 513,-610 "/>
<text text-anchor="start" x="351" y="-594.8" font-family="Times,serif" font-size="14.00">id :integer</text>
<text text-anchor="start" x="351" y="-579.8" font-family="Times,serif" font-size="14.00">name :string</text>
<text text-anchor="start" x="351" y="-564.8" font-family="Times,serif" font-size="14.00">created_at :datetime</text>
<text text-anchor="start" x="351" y="-549.8" font-family="Times,serif" font-size="14.00">updated_at :datetime</text>
<text text-anchor="start" x="351" y="-534.8" font-family="Times,serif" font-size="14.00">protocol :string</text>
</g>
<!-- Link -->
<g id="node7" class="node"><title>Link</title>
<polyline fill="none" stroke="black" points="468,-286 614,-286 "/>
<path fill="none" stroke="black" d="M614,-286C620,-286 626,-292 626,-298"/>
<polyline fill="none" stroke="black" points="626,-298 626,-410 "/>
<path fill="none" stroke="black" d="M626,-410C626,-416 620,-422 614,-422"/>
<polyline fill="none" stroke="black" points="614,-422 468,-422 "/>
<path fill="none" stroke="black" d="M468,-422C462,-422 456,-416 456,-410"/>
<polyline fill="none" stroke="black" points="456,-410 456,-298 "/>
<path fill="none" stroke="black" d="M456,-298C456,-292 462,-286 468,-286"/>
<text text-anchor="middle" x="541" y="-406.8" font-family="Times,serif" font-size="14.00">Link</text>
<polyline fill="none" stroke="black" points="456,-399 626,-399 "/>
<text text-anchor="start" x="464" y="-383.8" font-family="Times,serif" font-size="14.00">id :integer</text>
<text text-anchor="start" x="464" y="-368.8" font-family="Times,serif" font-size="14.00">name :text</text>
<text text-anchor="start" x="464" y="-353.8" font-family="Times,serif" font-size="14.00">domain_id :integer</text>
<text text-anchor="start" x="464" y="-338.8" font-family="Times,serif" font-size="14.00">title :text</text>
<text text-anchor="start" x="464" y="-323.8" font-family="Times,serif" font-size="14.00">description :text</text>
<text text-anchor="start" x="464" y="-308.8" font-family="Times,serif" font-size="14.00">created_at :datetime</text>
<text text-anchor="start" x="464" y="-293.8" font-family="Times,serif" font-size="14.00">updated_at :datetime</text>
</g>
<!-- Domain&#45;&gt;Link -->
<g id="edge4" class="edge"><title>Domain&#45;&gt;Link</title>
<path fill="none" stroke="#f4be65" d="M458.112,-519.31C471.719,-492.335 487.961,-460.14 502.446,-431.426"/>
<ellipse fill="none" stroke="#f4be65" cx="456.152" cy="-523.193" rx="4.00002" ry="4.00002"/>
<polygon fill="#f4be65" stroke="#f4be65" points="502.578,-431.165 511.099,-424.263 504.83,-426.701 507.082,-422.236 507.082,-422.236 507.082,-422.236 504.83,-426.701 503.064,-420.21 502.578,-431.165 502.578,-431.165"/>
</g>
<!-- UserLink -->
<g id="node8" class="node"><title>UserLink</title>
<polyline fill="none" stroke="black" points="316,-0.5 462,-0.5 "/>
<path fill="none" stroke="black" d="M462,-0.5C468,-0.5 474,-6.5 474,-12.5"/>
<polyline fill="none" stroke="black" points="474,-12.5 474,-199.5 "/>
<path fill="none" stroke="black" d="M474,-199.5C474,-205.5 468,-211.5 462,-211.5"/>
<polyline fill="none" stroke="black" points="462,-211.5 316,-211.5 "/>
<path fill="none" stroke="black" d="M316,-211.5C310,-211.5 304,-205.5 304,-199.5"/>
<polyline fill="none" stroke="black" points="304,-199.5 304,-12.5 "/>
<path fill="none" stroke="black" d="M304,-12.5C304,-6.5 310,-0.5 316,-0.5"/>
<text text-anchor="middle" x="389" y="-196.3" font-family="Times,serif" font-size="14.00">UserLink</text>
<polyline fill="none" stroke="black" points="304,-188.5 474,-188.5 "/>
<text text-anchor="start" x="312" y="-173.3" font-family="Times,serif" font-size="14.00">id :integer</text>
<text text-anchor="start" x="312" y="-158.3" font-family="Times,serif" font-size="14.00">user_id :integer</text>
<text text-anchor="start" x="312" y="-143.3" font-family="Times,serif" font-size="14.00">link_id :integer</text>
<text text-anchor="start" x="312" y="-128.3" font-family="Times,serif" font-size="14.00">title :string</text>
<text text-anchor="start" x="312" y="-113.3" font-family="Times,serif" font-size="14.00">description :text</text>
<text text-anchor="start" x="312" y="-98.3" font-family="Times,serif" font-size="14.00">email :string</text>
<text text-anchor="start" x="312" y="-83.3" font-family="Times,serif" font-size="14.00">is_private :boolean</text>
<text text-anchor="start" x="312" y="-68.3" font-family="Times,serif" font-size="14.00">is_spam :boolean</text>
<text text-anchor="start" x="312" y="-53.3" font-family="Times,serif" font-size="14.00">is_send :boolean</text>
<text text-anchor="start" x="312" y="-38.3" font-family="Times,serif" font-size="14.00">link_hash :string</text>
<text text-anchor="start" x="312" y="-23.3" font-family="Times,serif" font-size="14.00">created_at :datetime</text>
<text text-anchor="start" x="312" y="-8.3" font-family="Times,serif" font-size="14.00">updated_at :datetime</text>
</g>
<!-- Domain&#45;&gt;UserLink -->
<g id="edge6" class="edge"><title>Domain&#45;&gt;UserLink</title>
<path fill="none" stroke="#a8cc25" d="M425.966,-516.396C423.435,-449.746 418.273,-341.242 409,-248 408.147,-239.42 407.155,-230.561 406.078,-221.658"/>
<polygon fill="#a8cc25" stroke="#a8cc25" points="425.978,-516.732 421.852,-526.893 426.164,-521.729 426.349,-526.725 426.349,-526.725 426.349,-526.725 426.164,-521.729 430.846,-526.558 425.978,-516.732 425.978,-516.732"/>
<polygon fill="#a8cc25" stroke="#a8cc25" points="406.061,-221.523 409.294,-211.045 405.445,-216.562 404.828,-211.6 404.828,-211.6 404.828,-211.6 405.445,-216.562 400.363,-212.154 406.061,-221.523 406.061,-221.523"/>
</g>
<!-- SiteRate -->
<g id="node18" class="node"><title>SiteRate</title>
<polyline fill="none" stroke="black" points="238,-248.5 388,-248.5 "/>
<path fill="none" stroke="black" d="M388,-248.5C394,-248.5 400,-254.5 400,-260.5"/>
<polyline fill="none" stroke="black" points="400,-260.5 400,-447.5 "/>
<path fill="none" stroke="black" d="M400,-447.5C400,-453.5 394,-459.5 388,-459.5"/>
<polyline fill="none" stroke="black" points="388,-459.5 238,-459.5 "/>
<path fill="none" stroke="black" d="M238,-459.5C232,-459.5 226,-453.5 226,-447.5"/>
<polyline fill="none" stroke="black" points="226,-447.5 226,-260.5 "/>
<path fill="none" stroke="black" d="M226,-260.5C226,-254.5 232,-248.5 238,-248.5"/>
<text text-anchor="middle" x="313" y="-444.3" font-family="Times,serif" font-size="14.00">SiteRate</text>
<polyline fill="none" stroke="black" points="226,-436.5 400,-436.5 "/>
<text text-anchor="start" x="234" y="-421.3" font-family="Times,serif" font-size="14.00">id :integer</text>
<text text-anchor="start" x="234" y="-406.3" font-family="Times,serif" font-size="14.00">domain_id :integer</text>
<text text-anchor="start" x="234" y="-391.3" font-family="Times,serif" font-size="14.00">this_week :integer</text>
<text text-anchor="start" x="234" y="-376.3" font-family="Times,serif" font-size="14.00">prev_week :integer</text>
<text text-anchor="start" x="234" y="-361.3" font-family="Times,serif" font-size="14.00">this_month :integer</text>
<text text-anchor="start" x="234" y="-346.3" font-family="Times,serif" font-size="14.00">prev_month :integer</text>
<text text-anchor="start" x="234" y="-331.3" font-family="Times,serif" font-size="14.00">position :integer</text>
<text text-anchor="start" x="234" y="-316.3" font-family="Times,serif" font-size="14.00">prev_position :integer</text>
<text text-anchor="start" x="234" y="-301.3" font-family="Times,serif" font-size="14.00">total :integer</text>
<text text-anchor="start" x="234" y="-286.3" font-family="Times,serif" font-size="14.00">created_at :datetime</text>
<text text-anchor="start" x="234" y="-271.3" font-family="Times,serif" font-size="14.00">updated_at :datetime</text>
<text text-anchor="start" x="234" y="-256.3" font-family="Times,serif" font-size="14.00">alexa :integer</text>
</g>
<!-- Domain&#45;&gt;SiteRate -->
<g id="edge2" class="edge"><title>Domain&#45;&gt;SiteRate</title>
<path fill="none" stroke="#87d6a6" d="M397.493,-519.578C389.159,-503.345 379.847,-485.205 370.533,-467.064"/>
<ellipse fill="none" stroke="#87d6a6" cx="399.356" cy="-523.206" rx="4.00002" ry="4.00002"/>
<ellipse fill="#87d6a6" stroke="#87d6a6" cx="368.653" cy="-463.402" rx="4.00002" ry="4.00002"/>
</g>
<!-- SitesMonitor -->
<g id="node21" class="node"><title>SitesMonitor</title>
<polyline fill="none" stroke="black" points="656,-293.5 802,-293.5 "/>
<path fill="none" stroke="black" d="M802,-293.5C808,-293.5 814,-299.5 814,-305.5"/>
<polyline fill="none" stroke="black" points="814,-305.5 814,-402.5 "/>
<path fill="none" stroke="black" d="M814,-402.5C814,-408.5 808,-414.5 802,-414.5"/>
<polyline fill="none" stroke="black" points="802,-414.5 656,-414.5 "/>
<path fill="none" stroke="black" d="M656,-414.5C650,-414.5 644,-408.5 644,-402.5"/>
<polyline fill="none" stroke="black" points="644,-402.5 644,-305.5 "/>
<path fill="none" stroke="black" d="M644,-305.5C644,-299.5 650,-293.5 656,-293.5"/>
<text text-anchor="middle" x="729" y="-399.3" font-family="Times,serif" font-size="14.00">SitesMonitor</text>
<polyline fill="none" stroke="black" points="644,-391.5 814,-391.5 "/>
<text text-anchor="start" x="652" y="-376.3" font-family="Times,serif" font-size="14.00">id :integer</text>
<text text-anchor="start" x="652" y="-361.3" font-family="Times,serif" font-size="14.00">domain_id :integer</text>
<text text-anchor="start" x="652" y="-346.3" font-family="Times,serif" font-size="14.00">status :boolean</text>
<text text-anchor="start" x="652" y="-331.3" font-family="Times,serif" font-size="14.00">code :integer</text>
<text text-anchor="start" x="652" y="-316.3" font-family="Times,serif" font-size="14.00">created_at :datetime</text>
<text text-anchor="start" x="652" y="-301.3" font-family="Times,serif" font-size="14.00">updated_at :datetime</text>
</g>
<!-- Domain&#45;&gt;SitesMonitor -->
<g id="edge8" class="edge"><title>Domain&#45;&gt;SitesMonitor</title>
<path fill="none" stroke="#ef9931" d="M485.92,-521.339C497.269,-511.987 509.537,-503.068 522,-496 567.85,-469.999 590.753,-488.644 635,-460 650.77,-449.791 665.536,-436.261 678.482,-422.32"/>
<ellipse fill="none" stroke="#ef9931" cx="482.773" cy="-523.992" rx="4.00002" ry="4.00002"/>
<polygon fill="#ef9931" stroke="#ef9931" points="678.788,-421.98 688.825,-417.563 682.135,-418.265 685.482,-414.551 685.482,-414.551 685.482,-414.551 682.135,-418.265 682.139,-411.538 678.788,-421.98 678.788,-421.98"/>
</g>
<!-- Payment -->
<g id="node5" class="node"><title>Payment</title>
<polyline fill="none" stroke="black" points="731,-497 883,-497 "/>
<path fill="none" stroke="black" d="M883,-497C889,-497 895,-503 895,-509"/>
<polyline fill="none" stroke="black" points="895,-509 895,-651 "/>
<path fill="none" stroke="black" d="M895,-651C895,-657 889,-663 883,-663"/>
<polyline fill="none" stroke="black" points="883,-663 731,-663 "/>
<path fill="none" stroke="black" d="M731,-663C725,-663 719,-657 719,-651"/>
<polyline fill="none" stroke="black" points="719,-651 719,-509 "/>
<path fill="none" stroke="black" d="M719,-509C719,-503 725,-497 731,-497"/>
<text text-anchor="middle" x="807" y="-647.8" font-family="Times,serif" font-size="14.00">Payment</text>
<polyline fill="none" stroke="black" points="719,-640 895,-640 "/>
<text text-anchor="start" x="727" y="-624.8" font-family="Times,serif" font-size="14.00">id :integer</text>
<text text-anchor="start" x="727" y="-609.8" font-family="Times,serif" font-size="14.00">user_id :integer</text>
<text text-anchor="start" x="727" y="-594.8" font-family="Times,serif" font-size="14.00">tool :string</text>
<text text-anchor="start" x="727" y="-579.8" font-family="Times,serif" font-size="14.00">amount :float</text>
<text text-anchor="start" x="727" y="-564.8" font-family="Times,serif" font-size="14.00">ip :integer</text>
<text text-anchor="start" x="727" y="-549.8" font-family="Times,serif" font-size="14.00">payer_id :string</text>
<text text-anchor="start" x="727" y="-534.8" font-family="Times,serif" font-size="14.00">is_completed :boolean</text>
<text text-anchor="start" x="727" y="-519.8" font-family="Times,serif" font-size="14.00">created_at :datetime</text>
<text text-anchor="start" x="727" y="-504.8" font-family="Times,serif" font-size="14.00">updated_at :datetime</text>
</g>
<!-- Plan -->
<g id="node6" class="node"><title>Plan</title>
<polyline fill="none" stroke="black" points="873,-760.5 1019,-760.5 "/>
<path fill="none" stroke="black" d="M1019,-760.5C1025,-760.5 1031,-766.5 1031,-772.5"/>
<polyline fill="none" stroke="black" points="1031,-772.5 1031,-869.5 "/>
<path fill="none" stroke="black" d="M1031,-869.5C1031,-875.5 1025,-881.5 1019,-881.5"/>
<polyline fill="none" stroke="black" points="1019,-881.5 873,-881.5 "/>
<path fill="none" stroke="black" d="M873,-881.5C867,-881.5 861,-875.5 861,-869.5"/>
<polyline fill="none" stroke="black" points="861,-869.5 861,-772.5 "/>
<path fill="none" stroke="black" d="M861,-772.5C861,-766.5 867,-760.5 873,-760.5"/>
<text text-anchor="middle" x="946" y="-866.3" font-family="Times,serif" font-size="14.00">Plan</text>
<polyline fill="none" stroke="black" points="861,-858.5 1031,-858.5 "/>
<text text-anchor="start" x="869" y="-843.3" font-family="Times,serif" font-size="14.00">id :integer</text>
<text text-anchor="start" x="869" y="-828.3" font-family="Times,serif" font-size="14.00">name :string</text>
<text text-anchor="start" x="869" y="-813.3" font-family="Times,serif" font-size="14.00">price :float</text>
<text text-anchor="start" x="869" y="-798.3" font-family="Times,serif" font-size="14.00">sites_count :integer</text>
<text text-anchor="start" x="869" y="-783.3" font-family="Times,serif" font-size="14.00">created_at :datetime</text>
<text text-anchor="start" x="869" y="-768.3" font-family="Times,serif" font-size="14.00">updated_at :datetime</text>
</g>
<!-- Link&#45;&gt;UserLink -->
<g id="edge10" class="edge"><title>Link&#45;&gt;UserLink</title>
<path fill="none" stroke="#6390a1" d="M495.094,-278.704C483.718,-260.294 471.27,-240.147 459.029,-220.337"/>
<ellipse fill="none" stroke="#6390a1" cx="497.363" cy="-282.377" rx="4.00002" ry="4.00002"/>
<polygon fill="#6390a1" stroke="#6390a1" points="458.87,-220.078 457.441,-209.206 456.241,-215.825 453.613,-211.571 453.613,-211.571 453.613,-211.571 456.241,-215.825 449.785,-213.937 458.87,-220.078 458.87,-220.078"/>
</g>
<!-- LinkRate -->
<g id="node11" class="node"><title>LinkRate</title>
<polyline fill="none" stroke="black" points="504,-8 654,-8 "/>
<path fill="none" stroke="black" d="M654,-8C660,-8 666,-14 666,-20"/>
<polyline fill="none" stroke="black" points="666,-20 666,-192 "/>
<path fill="none" stroke="black" d="M666,-192C666,-198 660,-204 654,-204"/>
<polyline fill="none" stroke="black" points="654,-204 504,-204 "/>
<path fill="none" stroke="black" d="M504,-204C498,-204 492,-198 492,-192"/>
<polyline fill="none" stroke="black" points="492,-192 492,-20 "/>
<path fill="none" stroke="black" d="M492,-20C492,-14 498,-8 504,-8"/>
<text text-anchor="middle" x="579" y="-188.8" font-family="Times,serif" font-size="14.00">LinkRate</text>
<polyline fill="none" stroke="black" points="492,-181 666,-181 "/>
<text text-anchor="start" x="500" y="-165.8" font-family="Times,serif" font-size="14.00">id :integer</text>
<text text-anchor="start" x="500" y="-150.8" font-family="Times,serif" font-size="14.00">link_id :integer</text>
<text text-anchor="start" x="500" y="-135.8" font-family="Times,serif" font-size="14.00">this_week :integer</text>
<text text-anchor="start" x="500" y="-120.8" font-family="Times,serif" font-size="14.00">prev_week :integer</text>
<text text-anchor="start" x="500" y="-105.8" font-family="Times,serif" font-size="14.00">this_month :integer</text>
<text text-anchor="start" x="500" y="-90.8" font-family="Times,serif" font-size="14.00">prev_month :integer</text>
<text text-anchor="start" x="500" y="-75.8" font-family="Times,serif" font-size="14.00">position :integer</text>
<text text-anchor="start" x="500" y="-60.8" font-family="Times,serif" font-size="14.00">prev_position :integer</text>
<text text-anchor="start" x="500" y="-45.8" font-family="Times,serif" font-size="14.00">total :integer</text>
<text text-anchor="start" x="500" y="-30.8" font-family="Times,serif" font-size="14.00">created_at :datetime</text>
<text text-anchor="start" x="500" y="-15.8" font-family="Times,serif" font-size="14.00">updated_at :datetime</text>
</g>
<!-- Link&#45;&gt;LinkRate -->
<g id="edge12" class="edge"><title>Link&#45;&gt;LinkRate</title>
<path fill="none" stroke="#80a28d" d="M552.634,-277.687C555.827,-257.013 559.349,-234.211 562.751,-212.188"/>
<ellipse fill="none" stroke="#80a28d" cx="551.994" cy="-281.826" rx="4.00001" ry="4.00001"/>
<ellipse fill="#80a28d" stroke="#80a28d" cx="563.388" cy="-208.068" rx="4.00001" ry="4.00001"/>
</g>
<!-- Messages -->
<g id="node9" class="node"><title>Messages</title>
<polyline fill="none" stroke="black" points="1061,-753 1207,-753 "/>
<path fill="none" stroke="black" d="M1207,-753C1213,-753 1219,-759 1219,-765"/>
<polyline fill="none" stroke="black" points="1219,-765 1219,-877 "/>
<path fill="none" stroke="black" d="M1219,-877C1219,-883 1213,-889 1207,-889"/>
<polyline fill="none" stroke="black" points="1207,-889 1061,-889 "/>
<path fill="none" stroke="black" d="M1061,-889C1055,-889 1049,-883 1049,-877"/>
<polyline fill="none" stroke="black" points="1049,-877 1049,-765 "/>
<path fill="none" stroke="black" d="M1049,-765C1049,-759 1055,-753 1061,-753"/>
<text text-anchor="middle" x="1134" y="-873.8" font-family="Times,serif" font-size="14.00">Messages</text>
<polyline fill="none" stroke="black" points="1049,-866 1219,-866 "/>
<text text-anchor="start" x="1057" y="-850.8" font-family="Times,serif" font-size="14.00">id :integer</text>
<text text-anchor="start" x="1057" y="-835.8" font-family="Times,serif" font-size="14.00">email_from :string</text>
<text text-anchor="start" x="1057" y="-820.8" font-family="Times,serif" font-size="14.00">subject :string</text>
<text text-anchor="start" x="1057" y="-805.8" font-family="Times,serif" font-size="14.00">text :text</text>
<text text-anchor="start" x="1057" y="-790.8" font-family="Times,serif" font-size="14.00">user_id :integer</text>
<text text-anchor="start" x="1057" y="-775.8" font-family="Times,serif" font-size="14.00">created_at :datetime</text>
<text text-anchor="start" x="1057" y="-760.8" font-family="Times,serif" font-size="14.00">updated_at :datetime</text>
</g>
<!-- UnlockRequest -->
<g id="node10" class="node"><title>UnlockRequest</title>
<polyline fill="none" stroke="black" points="925,-519.5 1071,-519.5 "/>
<path fill="none" stroke="black" d="M1071,-519.5C1077,-519.5 1083,-525.5 1083,-531.5"/>
<polyline fill="none" stroke="black" points="1083,-531.5 1083,-628.5 "/>
<path fill="none" stroke="black" d="M1083,-628.5C1083,-634.5 1077,-640.5 1071,-640.5"/>
<polyline fill="none" stroke="black" points="1071,-640.5 925,-640.5 "/>
<path fill="none" stroke="black" d="M925,-640.5C919,-640.5 913,-634.5 913,-628.5"/>
<polyline fill="none" stroke="black" points="913,-628.5 913,-531.5 "/>
<path fill="none" stroke="black" d="M913,-531.5C913,-525.5 919,-519.5 925,-519.5"/>
<text text-anchor="middle" x="998" y="-625.3" font-family="Times,serif" font-size="14.00">UnlockRequest</text>
<polyline fill="none" stroke="black" points="913,-617.5 1083,-617.5 "/>
<text text-anchor="start" x="921" y="-602.3" font-family="Times,serif" font-size="14.00">id :integer</text>
<text text-anchor="start" x="921" y="-587.3" font-family="Times,serif" font-size="14.00">user_id :integer</text>
<text text-anchor="start" x="921" y="-572.3" font-family="Times,serif" font-size="14.00">message :text</text>
<text text-anchor="start" x="921" y="-557.3" font-family="Times,serif" font-size="14.00">status :string</text>
<text text-anchor="start" x="921" y="-542.3" font-family="Times,serif" font-size="14.00">created_at :datetime</text>
<text text-anchor="start" x="921" y="-527.3" font-family="Times,serif" font-size="14.00">updated_at :datetime</text>
</g>
<!-- Tweet -->
<g id="node12" class="node"><title>Tweet</title>
<polyline fill="none" stroke="black" points="1249,-775.5 1395,-775.5 "/>
<path fill="none" stroke="black" d="M1395,-775.5C1401,-775.5 1407,-781.5 1407,-787.5"/>
<polyline fill="none" stroke="black" points="1407,-787.5 1407,-854.5 "/>
<path fill="none" stroke="black" d="M1407,-854.5C1407,-860.5 1401,-866.5 1395,-866.5"/>
<polyline fill="none" stroke="black" points="1395,-866.5 1249,-866.5 "/>
<path fill="none" stroke="black" d="M1249,-866.5C1243,-866.5 1237,-860.5 1237,-854.5"/>
<polyline fill="none" stroke="black" points="1237,-854.5 1237,-787.5 "/>
<path fill="none" stroke="black" d="M1237,-787.5C1237,-781.5 1243,-775.5 1249,-775.5"/>
<text text-anchor="middle" x="1322" y="-851.3" font-family="Times,serif" font-size="14.00">Tweet</text>
<polyline fill="none" stroke="black" points="1237,-843.5 1407,-843.5 "/>
<text text-anchor="start" x="1245" y="-828.3" font-family="Times,serif" font-size="14.00">id :integer</text>
<text text-anchor="start" x="1245" y="-813.3" font-family="Times,serif" font-size="14.00">message :text</text>
<text text-anchor="start" x="1245" y="-798.3" font-family="Times,serif" font-size="14.00">created_at :datetime</text>
<text text-anchor="start" x="1245" y="-783.3" font-family="Times,serif" font-size="14.00">updated_at :datetime</text>
</g>
<!-- UserWatch -->
<g id="node13" class="node"><title>UserWatch</title>
<polyline fill="none" stroke="black" points="543,-527 689,-527 "/>
<path fill="none" stroke="black" d="M689,-527C695,-527 701,-533 701,-539"/>
<polyline fill="none" stroke="black" points="701,-539 701,-621 "/>
<path fill="none" stroke="black" d="M701,-621C701,-627 695,-633 689,-633"/>
<polyline fill="none" stroke="black" points="689,-633 543,-633 "/>
<path fill="none" stroke="black" d="M543,-633C537,-633 531,-627 531,-621"/>
<polyline fill="none" stroke="black" points="531,-621 531,-539 "/>
<path fill="none" stroke="black" d="M531,-539C531,-533 537,-527 543,-527"/>
<text text-anchor="middle" x="616" y="-617.8" font-family="Times,serif" font-size="14.00">UserWatch</text>
<polyline fill="none" stroke="black" points="531,-610 701,-610 "/>
<text text-anchor="start" x="539" y="-594.8" font-family="Times,serif" font-size="14.00">id :integer</text>
<text text-anchor="start" x="539" y="-579.8" font-family="Times,serif" font-size="14.00">user_id :integer</text>
<text text-anchor="start" x="539" y="-564.8" font-family="Times,serif" font-size="14.00">domain_id :integer</text>
<text text-anchor="start" x="539" y="-549.8" font-family="Times,serif" font-size="14.00">created_at :datetime</text>
<text text-anchor="start" x="539" y="-534.8" font-family="Times,serif" font-size="14.00">updated_at :datetime</text>
</g>
<!-- UserWatch&#45;&gt;SitesMonitor -->
<g id="edge14" class="edge"><title>UserWatch&#45;&gt;SitesMonitor</title>
<path fill="none" stroke="#a38c34" d="M647.02,-517.51C661.642,-488.523 679.145,-453.827 694.217,-423.951"/>
<polygon fill="#a38c34" stroke="#a38c34" points="646.855,-517.836 638.333,-524.738 644.603,-522.301 642.351,-526.765 642.351,-526.765 642.351,-526.765 644.603,-522.301 646.369,-528.791 646.855,-517.836 646.855,-517.836"/>
<polygon fill="#a38c34" stroke="#a38c34" points="694.306,-423.774 702.828,-416.872 696.558,-419.31 698.81,-414.846 698.81,-414.846 698.81,-414.846 696.558,-419.31 694.792,-412.819 694.306,-423.774 694.306,-423.774"/>
</g>
<!-- CancelMailingList -->
<g id="node14" class="node"><title>CancelMailingList</title>
<polyline fill="none" stroke="black" points="1113,-527 1259,-527 "/>
<path fill="none" stroke="black" d="M1259,-527C1265,-527 1271,-533 1271,-539"/>
<polyline fill="none" stroke="black" points="1271,-539 1271,-621 "/>
<path fill="none" stroke="black" d="M1271,-621C1271,-627 1265,-633 1259,-633"/>
<polyline fill="none" stroke="black" points="1259,-633 1113,-633 "/>
<path fill="none" stroke="black" d="M1113,-633C1107,-633 1101,-627 1101,-621"/>
<polyline fill="none" stroke="black" points="1101,-621 1101,-539 "/>
<path fill="none" stroke="black" d="M1101,-539C1101,-533 1107,-527 1113,-527"/>
<text text-anchor="middle" x="1186" y="-617.8" font-family="Times,serif" font-size="14.00">CancelMailingList</text>
<polyline fill="none" stroke="black" points="1101,-610 1271,-610 "/>
<text text-anchor="start" x="1109" y="-594.8" font-family="Times,serif" font-size="14.00">id :integer</text>
<text text-anchor="start" x="1109" y="-579.8" font-family="Times,serif" font-size="14.00">user_id :integer</text>
<text text-anchor="start" x="1109" y="-564.8" font-family="Times,serif" font-size="14.00">list_type :string</text>
<text text-anchor="start" x="1109" y="-549.8" font-family="Times,serif" font-size="14.00">created_at :datetime</text>
<text text-anchor="start" x="1109" y="-534.8" font-family="Times,serif" font-size="14.00">updated_at :datetime</text>
</g>
<!-- User -->
<g id="node15" class="node"><title>User</title>
<polyline fill="none" stroke="black" points="593,-700.5 831,-700.5 "/>
<path fill="none" stroke="black" d="M831,-700.5C837,-700.5 843,-706.5 843,-712.5"/>
<polyline fill="none" stroke="black" points="843,-712.5 843,-929.5 "/>
<path fill="none" stroke="black" d="M843,-929.5C843,-935.5 837,-941.5 831,-941.5"/>
<polyline fill="none" stroke="black" points="831,-941.5 593,-941.5 "/>
<path fill="none" stroke="black" d="M593,-941.5C587,-941.5 581,-935.5 581,-929.5"/>
<polyline fill="none" stroke="black" points="581,-929.5 581,-712.5 "/>
<path fill="none" stroke="black" d="M581,-712.5C581,-706.5 587,-700.5 593,-700.5"/>
<text text-anchor="middle" x="712" y="-926.3" font-family="Times,serif" font-size="14.00">User</text>
<polyline fill="none" stroke="black" points="581,-918.5 843,-918.5 "/>
<text text-anchor="start" x="589" y="-903.3" font-family="Times,serif" font-size="14.00">id :integer</text>
<text text-anchor="start" x="589" y="-888.3" font-family="Times,serif" font-size="14.00">email :string</text>
<text text-anchor="start" x="589" y="-873.3" font-family="Times,serif" font-size="14.00">encrypted_password :string</text>
<text text-anchor="start" x="589" y="-858.3" font-family="Times,serif" font-size="14.00">reset_password_token :string</text>
<text text-anchor="start" x="589" y="-843.3" font-family="Times,serif" font-size="14.00">reset_password_sent_at :datetime</text>
<text text-anchor="start" x="589" y="-828.3" font-family="Times,serif" font-size="14.00">remember_created_at :datetime</text>
<text text-anchor="start" x="589" y="-813.3" font-family="Times,serif" font-size="14.00">sign_in_count :integer</text>
<text text-anchor="start" x="589" y="-798.3" font-family="Times,serif" font-size="14.00">current_sign_in_at :datetime</text>
<text text-anchor="start" x="589" y="-783.3" font-family="Times,serif" font-size="14.00">last_sign_in_at :datetime</text>
<text text-anchor="start" x="589" y="-768.3" font-family="Times,serif" font-size="14.00">current_sign_in_ip :string</text>
<text text-anchor="start" x="589" y="-753.3" font-family="Times,serif" font-size="14.00">last_sign_in_ip :string</text>
<text text-anchor="start" x="589" y="-738.3" font-family="Times,serif" font-size="14.00">role :string</text>
<text text-anchor="start" x="589" y="-723.3" font-family="Times,serif" font-size="14.00">is_locked :boolean</text>
<text text-anchor="start" x="589" y="-708.3" font-family="Times,serif" font-size="14.00">locale :string</text>
</g>
<!-- User&#45;&gt;UserPlan -->
<g id="edge22" class="edge"><title>User&#45;&gt;UserPlan</title>
<path fill="none" stroke="#a1abdf" d="M573.381,-700.591C572.921,-700.392 572.461,-700.195 572,-700 412.525,-632.467 343.842,-730.661 184,-664 176.548,-660.892 169.234,-657.017 162.166,-652.652"/>
<ellipse fill="none" stroke="#a1abdf" cx="577.155" cy="-702.324" rx="4.00002" ry="4.00002"/>
<ellipse fill="#a1abdf" stroke="#a1abdf" cx="158.543" cy="-650.307" rx="4.00002" ry="4.00002"/>
</g>
<!-- User&#45;&gt;Domain -->
<g id="edge26" class="edge"><title>User&#45;&gt;Domain</title>
<path fill="none" stroke="#4f4dfd" d="M572.815,-700.641C572.543,-700.427 572.271,-700.213 572,-700 550.474,-683.075 543.401,-681.083 522,-664 512.401,-656.337 502.467,-648.021 492.813,-639.711"/>
<polygon fill="#4f4dfd" stroke="#4f4dfd" points="572.908,-700.715 577.944,-710.457 576.825,-703.824 580.742,-706.932 580.742,-706.932 580.742,-706.932 576.825,-703.824 583.539,-703.407 572.908,-700.715 572.908,-700.715"/>
<polygon fill="#4f4dfd" stroke="#4f4dfd" points="492.697,-639.611 488.089,-629.661 488.919,-636.336 485.141,-633.061 485.141,-633.061 485.141,-633.061 488.919,-636.336 482.194,-636.461 492.697,-639.611 492.697,-639.611"/>
</g>
<!-- User&#45;&gt;Payment -->
<g id="edge28" class="edge"><title>User&#45;&gt;Payment</title>
<path fill="none" stroke="#09a603" d="M762.656,-692.561C765.303,-685.902 767.937,-679.275 770.524,-672.765"/>
<ellipse fill="none" stroke="#09a603" cx="761.117" cy="-696.433" rx="4.00001" ry="4.00001"/>
<polygon fill="#09a603" stroke="#09a603" points="770.585,-672.613 778.46,-664.982 772.432,-667.967 774.279,-663.32 774.279,-663.32 774.279,-663.32 772.432,-667.967 770.097,-661.658 770.585,-672.613 770.585,-672.613"/>
</g>
<!-- User&#45;&gt;UserLink -->
<g id="edge16" class="edge"><title>User&#45;&gt;UserLink</title>
<path fill="none" stroke="#fecbec" d="M573.363,-700.63C572.909,-700.418 572.455,-700.208 572,-700 474.73,-655.464 422.289,-724.414 334,-664 247.741,-604.975 243.907,-560.997 217,-460 192.744,-368.953 176.692,-333.165 217,-248 233.831,-212.438 264.513,-182.847 295.353,-160.109"/>
<ellipse fill="none" stroke="#fecbec" cx="577.097" cy="-702.464" rx="4.00002" ry="4.00002"/>
<polygon fill="#fecbec" stroke="#fecbec" points="295.491,-160.009 306.239,-157.833 299.553,-157.093 303.615,-154.177 303.615,-154.177 303.615,-154.177 299.553,-157.093 300.99,-150.522 295.491,-160.009 295.491,-160.009"/>
</g>
<!-- User&#45;&gt;UnlockRequest -->
<g id="edge18" class="edge"><title>User&#45;&gt;UnlockRequest</title>
<path fill="none" stroke="#9b86c2" d="M849.544,-701.918C850.364,-701.275 851.183,-700.636 852,-700 873.89,-682.953 881.191,-681.15 903,-664 909.744,-658.697 916.648,-653.073 923.506,-647.352"/>
<ellipse fill="none" stroke="#9b86c2" cx="846.371" cy="-704.419" rx="4.00002" ry="4.00002"/>
<polygon fill="#9b86c2" stroke="#9b86c2" points="923.872,-647.043 934.42,-644.046 927.697,-643.823 931.522,-640.603 931.522,-640.603 931.522,-640.603 927.697,-643.823 928.624,-637.161 923.872,-647.043 923.872,-647.043"/>
</g>
<!-- User&#45;&gt;UserWatch -->
<g id="edge20" class="edge"><title>User&#45;&gt;UserWatch</title>
<path fill="none" stroke="#580374" d="M660.871,-692.711C653.884,-675.315 646.985,-658.14 640.771,-642.67"/>
<ellipse fill="none" stroke="#580374" cx="662.368" cy="-696.438" rx="4.00002" ry="4.00002"/>
<polygon fill="#580374" stroke="#580374" points="640.723,-642.55 641.171,-631.593 638.859,-637.91 636.996,-633.271 636.996,-633.271 636.996,-633.271 638.859,-637.91 632.82,-634.948 640.723,-642.55 640.723,-642.55"/>
</g>
<!-- User&#45;&gt;CancelMailingList -->
<g id="edge30" class="edge"><title>User&#45;&gt;CancelMailingList</title>
<path fill="none" stroke="#464fb2" d="M850.636,-700.63C851.091,-700.418 851.545,-700.208 852,-700 950.097,-655.158 994.236,-709.562 1092,-664 1105.31,-657.798 1118.13,-649.104 1129.79,-639.661"/>
<ellipse fill="none" stroke="#464fb2" cx="846.902" cy="-702.461" rx="4.00002" ry="4.00002"/>
<polygon fill="#464fb2" stroke="#464fb2" points="1130.02,-639.465 1140.57,-636.468 1133.85,-636.246 1137.68,-633.026 1137.68,-633.026 1137.68,-633.026 1133.85,-636.246 1134.78,-629.583 1130.02,-639.465 1130.02,-639.465"/>
</g>
<!-- UserPromo -->
<g id="node16" class="node"><title>UserPromo</title>
<polyline fill="none" stroke="black" points="1301,-527 1447,-527 "/>
<path fill="none" stroke="black" d="M1447,-527C1453,-527 1459,-533 1459,-539"/>
<polyline fill="none" stroke="black" points="1459,-539 1459,-621 "/>
<path fill="none" stroke="black" d="M1459,-621C1459,-627 1453,-633 1447,-633"/>
<polyline fill="none" stroke="black" points="1447,-633 1301,-633 "/>
<path fill="none" stroke="black" d="M1301,-633C1295,-633 1289,-627 1289,-621"/>
<polyline fill="none" stroke="black" points="1289,-621 1289,-539 "/>
<path fill="none" stroke="black" d="M1289,-539C1289,-533 1295,-527 1301,-527"/>
<text text-anchor="middle" x="1374" y="-617.8" font-family="Times,serif" font-size="14.00">UserPromo</text>
<polyline fill="none" stroke="black" points="1289,-610 1459,-610 "/>
<text text-anchor="start" x="1297" y="-594.8" font-family="Times,serif" font-size="14.00">id :integer</text>
<text text-anchor="start" x="1297" y="-579.8" font-family="Times,serif" font-size="14.00">user_id :integer</text>
<text text-anchor="start" x="1297" y="-564.8" font-family="Times,serif" font-size="14.00">promo_id :integer</text>
<text text-anchor="start" x="1297" y="-549.8" font-family="Times,serif" font-size="14.00">created_at :datetime</text>
<text text-anchor="start" x="1297" y="-534.8" font-family="Times,serif" font-size="14.00">updated_at :datetime</text>
</g>
<!-- User&#45;&gt;UserPromo -->
<g id="edge24" class="edge"><title>User&#45;&gt;UserPromo</title>
<path fill="none" stroke="#e99986" d="M850.617,-700.586C851.078,-700.388 851.539,-700.193 852,-700 1028.1,-626.319 1104.45,-738.974 1280,-664 1293.66,-658.164 1306.72,-649.541 1318.53,-640.031"/>
<ellipse fill="none" stroke="#e99986" cx="846.837" cy="-702.303" rx="4.00002" ry="4.00002"/>
<polygon fill="#e99986" stroke="#e99986" points="1318.84,-639.767 1329.39,-636.772 1322.67,-636.548 1326.5,-633.329 1326.5,-633.329 1326.5,-633.329 1322.67,-636.548 1323.6,-629.886 1318.84,-639.767 1318.84,-639.767"/>
</g>
<!-- News -->
<g id="node17" class="node"><title>News</title>
<polyline fill="none" stroke="black" points="1437,-760.5 1583,-760.5 "/>
<path fill="none" stroke="black" d="M1583,-760.5C1589,-760.5 1595,-766.5 1595,-772.5"/>
<polyline fill="none" stroke="black" points="1595,-772.5 1595,-869.5 "/>
<path fill="none" stroke="black" d="M1595,-869.5C1595,-875.5 1589,-881.5 1583,-881.5"/>
<polyline fill="none" stroke="black" points="1583,-881.5 1437,-881.5 "/>
<path fill="none" stroke="black" d="M1437,-881.5C1431,-881.5 1425,-875.5 1425,-869.5"/>
<polyline fill="none" stroke="black" points="1425,-869.5 1425,-772.5 "/>
<path fill="none" stroke="black" d="M1425,-772.5C1425,-766.5 1431,-760.5 1437,-760.5"/>
<text text-anchor="middle" x="1510" y="-866.3" font-family="Times,serif" font-size="14.00">News</text>
<polyline fill="none" stroke="black" points="1425,-858.5 1595,-858.5 "/>
<text text-anchor="start" x="1433" y="-843.3" font-family="Times,serif" font-size="14.00">id :integer</text>
<text text-anchor="start" x="1433" y="-828.3" font-family="Times,serif" font-size="14.00">title :string</text>
<text text-anchor="start" x="1433" y="-813.3" font-family="Times,serif" font-size="14.00">text :text</text>
<text text-anchor="start" x="1433" y="-798.3" font-family="Times,serif" font-size="14.00">locale :string</text>
<text text-anchor="start" x="1433" y="-783.3" font-family="Times,serif" font-size="14.00">created_at :datetime</text>
<text text-anchor="start" x="1433" y="-768.3" font-family="Times,serif" font-size="14.00">updated_at :datetime</text>
</g>
<!-- LockedEmail -->
<g id="node19" class="node"><title>LockedEmail</title>
<polyline fill="none" stroke="black" points="1625,-775.5 1771,-775.5 "/>
<path fill="none" stroke="black" d="M1771,-775.5C1777,-775.5 1783,-781.5 1783,-787.5"/>
<polyline fill="none" stroke="black" points="1783,-787.5 1783,-854.5 "/>
<path fill="none" stroke="black" d="M1783,-854.5C1783,-860.5 1777,-866.5 1771,-866.5"/>
<polyline fill="none" stroke="black" points="1771,-866.5 1625,-866.5 "/>
<path fill="none" stroke="black" d="M1625,-866.5C1619,-866.5 1613,-860.5 1613,-854.5"/>
<polyline fill="none" stroke="black" points="1613,-854.5 1613,-787.5 "/>
<path fill="none" stroke="black" d="M1613,-787.5C1613,-781.5 1619,-775.5 1625,-775.5"/>
<text text-anchor="middle" x="1698" y="-851.3" font-family="Times,serif" font-size="14.00">LockedEmail</text>
<polyline fill="none" stroke="black" points="1613,-843.5 1783,-843.5 "/>
<text text-anchor="start" x="1621" y="-828.3" font-family="Times,serif" font-size="14.00">id :integer</text>
<text text-anchor="start" x="1621" y="-813.3" font-family="Times,serif" font-size="14.00">email :string</text>
<text text-anchor="start" x="1621" y="-798.3" font-family="Times,serif" font-size="14.00">created_at :datetime</text>
<text text-anchor="start" x="1621" y="-783.3" font-family="Times,serif" font-size="14.00">updated_at :datetime</text>
</g>
<!-- Ability -->
<g id="node20" class="node"><title>Ability</title>
<polygon fill="none" stroke="black" points="1801,-798 1801,-844 1865,-844 1865,-798 1801,-798"/>
<text text-anchor="middle" x="1833" y="-828.8" font-family="Times,serif" font-size="14.00">Ability</text>
<polyline fill="none" stroke="black" points="1801,-821 1865,-821 "/>
<text text-anchor="middle" x="1833" y="-805.8" font-family="Times,serif" font-size="14.00"> </text>
</g>
<!-- AdminUser -->
<g id="node22" class="node"><title>AdminUser</title>
<polyline fill="none" stroke="black" points="1895,-723 2133,-723 "/>
<path fill="none" stroke="black" d="M2133,-723C2139,-723 2145,-729 2145,-735"/>
<polyline fill="none" stroke="black" points="2145,-735 2145,-907 "/>
<path fill="none" stroke="black" d="M2145,-907C2145,-913 2139,-919 2133,-919"/>
<polyline fill="none" stroke="black" points="2133,-919 1895,-919 "/>
<path fill="none" stroke="black" d="M1895,-919C1889,-919 1883,-913 1883,-907"/>
<polyline fill="none" stroke="black" points="1883,-907 1883,-735 "/>
<path fill="none" stroke="black" d="M1883,-735C1883,-729 1889,-723 1895,-723"/>
<text text-anchor="middle" x="2014" y="-903.8" font-family="Times,serif" font-size="14.00">AdminUser</text>
<polyline fill="none" stroke="black" points="1883,-896 2145,-896 "/>
<text text-anchor="start" x="1891" y="-880.8" font-family="Times,serif" font-size="14.00">id :integer</text>
<text text-anchor="start" x="1891" y="-865.8" font-family="Times,serif" font-size="14.00">email :string</text>
<text text-anchor="start" x="1891" y="-850.8" font-family="Times,serif" font-size="14.00">encrypted_password :string</text>
<text text-anchor="start" x="1891" y="-835.8" font-family="Times,serif" font-size="14.00">reset_password_token :string</text>
<text text-anchor="start" x="1891" y="-820.8" font-family="Times,serif" font-size="14.00">reset_password_sent_at :datetime</text>
<text text-anchor="start" x="1891" y="-805.8" font-family="Times,serif" font-size="14.00">remember_created_at :datetime</text>
<text text-anchor="start" x="1891" y="-790.8" font-family="Times,serif" font-size="14.00">sign_in_count :integer</text>
<text text-anchor="start" x="1891" y="-775.8" font-family="Times,serif" font-size="14.00">current_sign_in_at :datetime</text>
<text text-anchor="start" x="1891" y="-760.8" font-family="Times,serif" font-size="14.00">last_sign_in_at :datetime</text>
<text text-anchor="start" x="1891" y="-745.8" font-family="Times,serif" font-size="14.00">current_sign_in_ip :string</text>
<text text-anchor="start" x="1891" y="-730.8" font-family="Times,serif" font-size="14.00">last_sign_in_ip :string</text>
</g>
</g>
</svg>
