<?xml version="1.0" encoding="UTF-8" standalone="no"?>
<!DOCTYPE svg PUBLIC "-//W3C//DTD SVG 1.1//EN"
 "http://www.w3.org/Graphics/SVG/1.1/DTD/svg11.dtd">
<!-- Generated by graphviz version 2.28.0 (20120716.1447)
 -->
<!-- Title: models_diagram Pages: 1 -->
<svg width="1309pt" height="302pt"
 viewBox="0.00 0.00 1309.00 302.00" xmlns="http://www.w3.org/2000/svg" xmlns:xlink="http://www.w3.org/1999/xlink">
<g id="graph1" class="graph" transform="scale(1 1) rotate(0) translate(4 298)">
<title>models_diagram</title>
<polygon fill="white" stroke="white" points="-4,5 -4,-298 1306,-298 1306,5 -4,5"/>
<!-- _diagram_info -->
<g id="node1" class="node"><title>_diagram_info</title>
<text text-anchor="start" x="83.5" y="-279.6" font-family="Times,serif" font-size="13.00">Models diagram</text>
<text text-anchor="start" x="83.5" y="-265.6" font-family="Times,serif" font-size="13.00">Date: Jan 08 2013 &#45; 05:52</text>
<text text-anchor="start" x="83.5" y="-251.6" font-family="Times,serif" font-size="13.00">Migration version: 20121224190633</text>
<text text-anchor="start" x="83.5" y="-237.6" font-family="Times,serif" font-size="13.00">Generated by RailRoady 1.1.0</text>
<text text-anchor="start" x="83.5" y="-223.6" font-family="Times,serif" font-size="13.00">http://railroady.prestonlee.com</text>
</g>
<!-- Promo -->
<g id="node2" class="node"><title>Promo</title>
<ellipse fill="none" stroke="black" cx="391" cy="-255" rx="40.4202" ry="18"/>
<text text-anchor="middle" x="391" y="-251.3" font-family="Times,serif" font-size="14.00">Promo</text>
</g>
<!-- UserPlan -->
<g id="node3" class="node"><title>UserPlan</title>
<ellipse fill="none" stroke="black" cx="53" cy="-162" rx="52.9443" ry="18"/>
<text text-anchor="middle" x="53" y="-158.3" font-family="Times,serif" font-size="14.00">UserPlan</text>
</g>
<!-- Domain -->
<g id="node4" class="node"><title>Domain</title>
<ellipse fill="none" stroke="black" cx="290" cy="-162" rx="46.2191" ry="18"/>
<text text-anchor="middle" x="290" y="-158.3" font-family="Times,serif" font-size="14.00">Domain</text>
</g>
<!-- Link -->
<g id="node7" class="node"><title>Link</title>
<ellipse fill="none" stroke="black" cx="350" cy="-90" rx="31.2735" ry="18"/>
<text text-anchor="middle" x="350" y="-86.3" font-family="Times,serif" font-size="14.00">Link</text>
</g>
<!-- Domain&#45;&gt;Link -->
<g id="edge4" class="edge"><title>Domain&#45;&gt;Link</title>
<path fill="none" stroke="#b3b5cf" d="M309.242,-138.551C315.785,-130.917 323.116,-122.365 329.737,-114.64"/>
<ellipse fill="none" stroke="#b3b5cf" cx="306.519" cy="-141.728" rx="4.00002" ry="4.00002"/>
<polygon fill="#b3b5cf" stroke="#b3b5cf" points="330.064,-114.258 339.989,-109.594 333.318,-110.462 336.572,-106.666 336.572,-106.666 336.572,-106.666 333.318,-110.462 333.156,-103.737 330.064,-114.258 330.064,-114.258"/>
</g>
<!-- UserLink -->
<g id="node8" class="node"><title>UserLink</title>
<ellipse fill="none" stroke="black" cx="257" cy="-18" rx="53.4184" ry="18"/>
<text text-anchor="middle" x="257" y="-14.3" font-family="Times,serif" font-size="14.00">UserLink</text>
</g>
<!-- Domain&#45;&gt;UserLink -->
<g id="edge6" class="edge"><title>Domain&#45;&gt;UserLink</title>
<path fill="none" stroke="#7e4132" d="M284.529,-133.719C280.902,-116.067 275.921,-92.617 271,-72 268.98,-63.5385 266.618,-54.3626 264.416,-46.0611"/>
<polygon fill="#7e4132" stroke="#7e4132" points="284.603,-134.085 282.19,-144.782 285.601,-138.984 286.6,-143.883 286.6,-143.883 286.6,-143.883 285.601,-138.984 291.009,-142.985 284.603,-134.085 284.603,-134.085"/>
<polygon fill="#7e4132" stroke="#7e4132" points="264.343,-45.7908 266.095,-34.9657 263.046,-40.962 261.749,-36.1332 261.749,-36.1332 261.749,-36.1332 263.046,-40.962 257.403,-37.3007 264.343,-45.7908 264.343,-45.7908"/>
</g>
<!-- SiteRate -->
<g id="node18" class="node"><title>SiteRate</title>
<ellipse fill="none" stroke="black" cx="212" cy="-90" rx="50.0684" ry="18"/>
<text text-anchor="middle" x="212" y="-86.3" font-family="Times,serif" font-size="14.00">SiteRate</text>
</g>
<!-- Domain&#45;&gt;SiteRate -->
<g id="edge2" class="edge"><title>Domain&#45;&gt;SiteRate</title>
<path fill="none" stroke="#5207a0" d="M266.075,-139.529C256.511,-130.946 245.517,-121.079 235.951,-112.494"/>
<ellipse fill="none" stroke="#5207a0" cx="269.324" cy="-142.444" rx="4.00002" ry="4.00002"/>
<ellipse fill="#5207a0" stroke="#5207a0" cx="232.876" cy="-109.735" rx="4.00002" ry="4.00002"/>
</g>
<!-- SitesMonitor -->
<g id="node21" class="node"><title>SitesMonitor</title>
<ellipse fill="none" stroke="black" cx="471" cy="-90" rx="71.2405" ry="18"/>
<text text-anchor="middle" x="471" y="-86.3" font-family="Times,serif" font-size="14.00">SitesMonitor</text>
</g>
<!-- Domain&#45;&gt;SitesMonitor -->
<g id="edge8" class="edge"><title>Domain&#45;&gt;SitesMonitor</title>
<path fill="none" stroke="#f02072" d="M329.128,-145.868C356.95,-135.108 394.459,-120.601 423.922,-109.207"/>
<ellipse fill="none" stroke="#f02072" cx="325.259" cy="-147.364" rx="4.00001" ry="4.00001"/>
<polygon fill="#f02072" stroke="#f02072" points="424.252,-109.079 435.202,-109.669 428.916,-107.276 433.579,-105.472 433.579,-105.472 433.579,-105.472 428.916,-107.276 431.956,-101.275 424.252,-109.079 424.252,-109.079"/>
</g>
<!-- Payment -->
<g id="node5" class="node"><title>Payment</title>
<ellipse fill="none" stroke="black" cx="547" cy="-162" rx="51.0191" ry="18"/>
<text text-anchor="middle" x="547" y="-158.3" font-family="Times,serif" font-size="14.00">Payment</text>
</g>
<!-- Plan -->
<g id="node6" class="node"><title>Plan</title>
<ellipse fill="none" stroke="black" cx="564" cy="-255" rx="31.2965" ry="18"/>
<text text-anchor="middle" x="564" y="-251.3" font-family="Times,serif" font-size="14.00">Plan</text>
</g>
<!-- Link&#45;&gt;UserLink -->
<g id="edge10" class="edge"><title>Link&#45;&gt;UserLink</title>
<path fill="none" stroke="#d68a61" d="M325.146,-70.2923C313.168,-61.2771 298.724,-50.4055 286.223,-40.9958"/>
<ellipse fill="none" stroke="#d68a61" cx="328.43" cy="-72.7647" rx="4.00002" ry="4.00002"/>
<polygon fill="#d68a61" stroke="#d68a61" points="285.922,-40.7695 280.639,-31.1604 281.927,-37.7626 277.933,-34.7557 277.933,-34.7557 277.933,-34.7557 281.927,-37.7626 275.226,-38.3511 285.922,-40.7695 285.922,-40.7695"/>
</g>
<!-- LinkRate -->
<g id="node11" class="node"><title>LinkRate</title>
<ellipse fill="none" stroke="black" cx="382" cy="-18" rx="52.9443" ry="18"/>
<text text-anchor="middle" x="382" y="-14.3" font-family="Times,serif" font-size="14.00">LinkRate</text>
</g>
<!-- Link&#45;&gt;LinkRate -->
<g id="edge12" class="edge"><title>Link&#45;&gt;LinkRate</title>
<path fill="none" stroke="#4a0a24" d="M360.943,-65.0625C364.156,-58.0344 367.672,-50.3429 370.895,-43.2928"/>
<ellipse fill="none" stroke="#4a0a24" cx="359.247" cy="-68.7731" rx="4.00002" ry="4.00002"/>
<ellipse fill="#4a0a24" stroke="#4a0a24" cx="372.586" cy="-39.5941" rx="4.00002" ry="4.00002"/>
</g>
<!-- Messages -->
<g id="node9" class="node"><title>Messages</title>
<ellipse fill="none" stroke="black" cx="670" cy="-255" rx="57.2927" ry="18"/>
<text text-anchor="middle" x="670" y="-251.3" font-family="Times,serif" font-size="14.00">Messages</text>
</g>
<!-- UnlockRequest -->
<g id="node10" class="node"><title>UnlockRequest</title>
<ellipse fill="none" stroke="black" cx="698" cy="-162" rx="81.3646" ry="18"/>
<text text-anchor="middle" x="698" y="-158.3" font-family="Times,serif" font-size="14.00">UnlockRequest</text>
</g>
<!-- Tweet -->
<g id="node12" class="node"><title>Tweet</title>
<ellipse fill="none" stroke="black" cx="784" cy="-255" rx="38.0212" ry="18"/>
<text text-anchor="middle" x="784" y="-251.3" font-family="Times,serif" font-size="14.00">Tweet</text>
</g>
<!-- UserWatch -->
<g id="node13" class="node"><title>UserWatch</title>
<ellipse fill="none" stroke="black" cx="416" cy="-162" rx="61.6163" ry="18"/>
<text text-anchor="middle" x="416" y="-158.3" font-family="Times,serif" font-size="14.00">UserWatch</text>
</g>
<!-- UserWatch&#45;&gt;SitesMonitor -->
<g id="edge14" class="edge"><title>UserWatch&#45;&gt;SitesMonitor</title>
<path fill="none" stroke="#3ca406" d="M435.528,-136.146C440.721,-129.537 446.33,-122.399 451.52,-115.793"/>
<polygon fill="#3ca406" stroke="#3ca406" points="435.492,-136.192 425.776,-141.275 432.403,-140.123 429.314,-144.055 429.314,-144.055 429.314,-144.055 432.403,-140.123 432.852,-146.835 435.492,-136.192 435.492,-136.192"/>
<polygon fill="#3ca406" stroke="#3ca406" points="451.63,-115.652 461.347,-110.569 454.72,-111.721 457.809,-107.789 457.809,-107.789 457.809,-107.789 454.72,-111.721 454.27,-105.009 451.63,-115.652 451.63,-115.652"/>
</g>
<!-- CancelMailingList -->
<g id="node14" class="node"><title>CancelMailingList</title>
<ellipse fill="none" stroke="black" cx="894" cy="-162" rx="96.2631" ry="18"/>
<text text-anchor="middle" x="894" y="-158.3" font-family="Times,serif" font-size="14.00">CancelMailingList</text>
</g>
<!-- User -->
<g id="node15" class="node"><title>User</title>
<ellipse fill="none" stroke="black" cx="482" cy="-255" rx="32.2457" ry="18"/>
<text text-anchor="middle" x="482" y="-251.3" font-family="Times,serif" font-size="14.00">User</text>
</g>
<!-- User&#45;&gt;UserPlan -->
<g id="edge22" class="edge"><title>User&#45;&gt;UserPlan</title>
<path fill="none" stroke="#ed9d53" d="M463.15,-232.36C456.484,-226.056 448.51,-219.838 440,-216 309.538,-157.154 260.8,-205.659 120,-180 113.774,-178.865 107.27,-177.477 100.867,-175.987"/>
<ellipse fill="none" stroke="#ed9d53" cx="466.057" cy="-235.276" rx="4.00002" ry="4.00002"/>
<ellipse fill="#ed9d53" stroke="#ed9d53" cx="96.7278" cy="-174.992" rx="4.00001" ry="4.00001"/>
</g>
<!-- User&#45;&gt;Domain -->
<g id="edge26" class="edge"><title>User&#45;&gt;Domain</title>
<path fill="none" stroke="#6f6028" d="M460.597,-231.669C454.351,-226.01 447.245,-220.319 440,-216 430.528,-210.354 374.502,-191.127 333.689,-177.461"/>
<polygon fill="#6f6028" stroke="#6f6028" points="460.753,-231.818 464.891,-241.973 464.374,-235.266 467.995,-238.714 467.995,-238.714 467.995,-238.714 464.374,-235.266 471.098,-235.455 460.753,-231.818 460.753,-231.818"/>
<polygon fill="#6f6028" stroke="#6f6028" points="333.684,-177.459 325.625,-170.023 328.941,-175.875 324.199,-174.291 324.199,-174.291 324.199,-174.291 328.941,-175.875 322.773,-178.559 333.684,-177.459 333.684,-177.459"/>
</g>
<!-- User&#45;&gt;Payment -->
<g id="edge28" class="edge"><title>User&#45;&gt;Payment</title>
<path fill="none" stroke="#1c44e5" d="M498.271,-231.22C507.64,-218.103 519.43,-201.598 529.066,-188.107"/>
<ellipse fill="none" stroke="#1c44e5" cx="495.946" cy="-234.476" rx="4.00002" ry="4.00002"/>
<polygon fill="#1c44e5" stroke="#1c44e5" points="529.228,-187.881 538.702,-182.359 532.134,-183.812 535.04,-179.744 535.04,-179.744 535.04,-179.744 532.134,-183.812 531.378,-177.128 529.228,-187.881 529.228,-187.881"/>
</g>
<!-- User&#45;&gt;UserLink -->
<g id="edge16" class="edge"><title>User&#45;&gt;UserLink</title>
<path fill="none" stroke="#34a839" d="M463.004,-232.67C456.33,-226.385 448.387,-220.1 440,-216 317.556,-156.151 209.209,-232.157 153,-108 146.401,-93.4242 144.641,-85.6425 153,-72 164.556,-53.1415 185.161,-40.7297 204.999,-32.6955"/>
<ellipse fill="none" stroke="#34a839" cx="465.915" cy="-235.562" rx="4.00002" ry="4.00002"/>
<polygon fill="#34a839" stroke="#34a839" points="205.267,-32.5956 216.209,-33.3092 209.95,-30.8448 214.634,-29.094 214.634,-29.094 214.634,-29.094 209.95,-30.8448 213.058,-24.8789 205.267,-32.5956 205.267,-32.5956"/>
</g>
<!-- User&#45;&gt;UnlockRequest -->
<g id="edge18" class="edge"><title>User&#45;&gt;UnlockRequest</title>
<path fill="none" stroke="#fd83c8" d="M502.042,-232.588C508.574,-226.555 516.172,-220.436 524,-216 556.243,-197.729 595.492,-185.071 628.547,-176.72"/>
<ellipse fill="none" stroke="#fd83c8" cx="498.773" cy="-235.747" rx="4.00002" ry="4.00002"/>
<polygon fill="#fd83c8" stroke="#fd83c8" points="628.877,-176.639 639.66,-178.637 633.735,-175.452 638.592,-174.265 638.592,-174.265 638.592,-174.265 633.735,-175.452 637.523,-169.894 628.877,-176.639 628.877,-176.639"/>
</g>
<!-- User&#45;&gt;UserWatch -->
<g id="edge20" class="edge"><title>User&#45;&gt;UserWatch</title>
<path fill="none" stroke="#0e725c" d="M465.791,-231.652C456.282,-218.54 444.237,-201.932 434.376,-188.336"/>
<ellipse fill="none" stroke="#0e725c" cx="468.155" cy="-234.911" rx="4.00002" ry="4.00002"/>
<polygon fill="#0e725c" stroke="#0e725c" points="434.131,-187.998 431.902,-177.261 431.195,-183.951 428.259,-179.903 428.259,-179.903 428.259,-179.903 431.195,-183.951 424.617,-182.545 434.131,-187.998 434.131,-187.998"/>
</g>
<!-- User&#45;&gt;CancelMailingList -->
<g id="edge30" class="edge"><title>User&#45;&gt;CancelMailingList</title>
<path fill="none" stroke="#f6a3e0" d="M500.905,-232.479C507.573,-226.181 515.536,-219.938 524,-216 631.367,-166.045 670.863,-197.377 788,-180 796.506,-178.738 805.389,-177.379 814.236,-175.999"/>
<ellipse fill="none" stroke="#f6a3e0" cx="497.996" cy="-235.385" rx="4.00002" ry="4.00002"/>
<polygon fill="#f6a3e0" stroke="#f6a3e0" points="814.31,-175.987 824.887,-178.88 819.249,-175.211 824.189,-174.435 824.189,-174.435 824.189,-174.435 819.249,-175.211 823.49,-169.99 814.31,-175.987 814.31,-175.987"/>
</g>
<!-- UserPromo -->
<g id="node16" class="node"><title>UserPromo</title>
<ellipse fill="none" stroke="black" cx="1072" cy="-162" rx="63.0666" ry="18"/>
<text text-anchor="middle" x="1072" y="-158.3" font-family="Times,serif" font-size="14.00">UserPromo</text>
</g>
<!-- User&#45;&gt;UserPromo -->
<g id="edge24" class="edge"><title>User&#45;&gt;UserPromo</title>
<path fill="none" stroke="#129e06" d="M500.448,-232.481C507.172,-226.06 515.283,-219.742 524,-216 621.272,-174.237 894.366,-196.052 999,-180 1004.77,-179.115 1010.76,-178.019 1016.71,-176.812"/>
<ellipse fill="none" stroke="#129e06" cx="497.491" cy="-235.486" rx="4.00002" ry="4.00002"/>
<polygon fill="#129e06" stroke="#129e06" points="1016.87,-176.778 1027.59,-179.096 1021.76,-175.736 1026.65,-174.695 1026.65,-174.695 1026.65,-174.695 1021.76,-175.736 1025.71,-170.293 1016.87,-176.778 1016.87,-176.778"/>
</g>
<!-- News -->
<g id="node17" class="node"><title>News</title>
<ellipse fill="none" stroke="black" cx="877" cy="-255" rx="37.0701" ry="18"/>
<text text-anchor="middle" x="877" y="-251.3" font-family="Times,serif" font-size="14.00">News</text>
</g>
<!-- LockedEmail -->
<g id="node19" class="node"><title>LockedEmail</title>
<ellipse fill="none" stroke="black" cx="1004" cy="-255" rx="71.2405" ry="18"/>
<text text-anchor="middle" x="1004" y="-251.3" font-family="Times,serif" font-size="14.00">LockedEmail</text>
</g>
<!-- Ability -->
<g id="node20" class="node"><title>Ability</title>
<polygon fill="none" stroke="black" points="1157,-273 1093,-273 1093,-237 1157,-237 1157,-273"/>
<text text-anchor="middle" x="1125" y="-251.3" font-family="Times,serif" font-size="14.00">Ability</text>
</g>
<!-- AdminUser -->
<g id="node22" class="node"><title>AdminUser</title>
<ellipse fill="none" stroke="black" cx="1238" cy="-255" rx="63.0666" ry="18"/>
<text text-anchor="middle" x="1238" y="-251.3" font-family="Times,serif" font-size="14.00">AdminUser</text>
</g>
</g>
</svg>
